<svg xmlns="http://www.w3.org/2000/svg" width="130.941" height="56.612" viewBox="0 0 130.941 56.612">
  <g id="Grupo_1579" data-name="Grupo 1579" transform="translate(-16.876 -25.534)">
    <g id="Grupo_1576" data-name="Grupo 1576" transform="translate(16.876 25.534)">
      <g id="Grupo_1572" data-name="Grupo 1572" transform="translate(0 0)">
        <g id="Grupo_1565" data-name="Grupo 1565" transform="translate(0 27.725)">
          <path id="Trazado_5217" data-name="Trazado 5217" d="M52.87,413.975a1.9,1.9,0,0,1-1.132-.42L34.507,399.537a1.829,1.829,0,0,1-.665-1.172,1.747,1.747,0,0,1,.393-1.359l4.883-5.8a9.05,9.05,0,0,1,7.01-3.44,7.221,7.221,0,0,1,4.389,1.7,6.592,6.592,0,0,1,1.983,2.751,8.193,8.193,0,0,1,1.808-.137,7.958,7.958,0,0,1,4.751,1.7,8.287,8.287,0,0,1,3.4,6.82,10.547,10.547,0,0,1-2.651,6.219l-5.494,6.526A1.8,1.8,0,0,1,52.87,413.975Zm-.728-10.906,1-1.186c.319-.379.594-.915.1-1.319a.729.729,0,0,0-.434-.188,1.234,1.234,0,0,0-.878.518l-1,1.186ZM45.046,397.3l.656-.779a.221.221,0,0,0,.048-.168.253.253,0,0,0-.094-.174.289.289,0,0,0-.175-.068.232.232,0,0,0-.188.077l-.656.779Z" transform="translate(-32.466 -386.425)" fill="#301b0e"/>
          <path id="Trazado_5218" data-name="Trazado 5218" d="M30.5,373.785a5.879,5.879,0,0,1,3.564,1.393,4.484,4.484,0,0,1,1.763,3.471,6.217,6.217,0,0,1,2.853-.549,6.623,6.623,0,0,1,3.926,1.391c4.366,3.552,3.2,8.029.568,11.158l-5.494,6.526a.444.444,0,0,1-.359.15.516.516,0,0,1-.307-.113L19.782,383.194a.458.458,0,0,1-.088-.65l4.883-5.8a7.734,7.734,0,0,1,5.921-2.958m-.858,10.078,1.521-1.806a1.567,1.567,0,0,0-.23-2.223,1.669,1.669,0,0,0-1-.375,1.594,1.594,0,0,0-1.278.559l-1.521,1.806,2.508,2.04m7.1,5.772,1.863-2.213a2.128,2.128,0,0,0-.087-3.2,2.087,2.087,0,0,0-1.259-.5,2.519,2.519,0,0,0-1.968,1l-1.863,2.214,3.314,2.7m-6.157-18.52a9.362,9.362,0,0,0-4.63,1.111,11.689,11.689,0,0,0-3.47,2.811l-4.883,5.8a3.065,3.065,0,0,0-.691,2.385,3.161,3.161,0,0,0,1.148,2.027l17.231,14.018a3.289,3.289,0,0,0,1.957.728,3.155,3.155,0,0,0,2.538-1.112l5.494-6.526a13.666,13.666,0,0,0,2.027-3.185,10.294,10.294,0,0,0,.933-3.833,9.49,9.49,0,0,0-3.9-7.9,9.342,9.342,0,0,0-5.575-2.007,9.84,9.84,0,0,0-1.027.019,7.991,7.991,0,0,0-1.94-2.326,8.685,8.685,0,0,0-5.213-2.009Z" transform="translate(-16.876 -371.11)" fill="#301b0e"/>
        </g>
        <g id="Grupo_1566" data-name="Grupo 1566" transform="translate(53.577 3.304)">
          <path id="Trazado_5219" data-name="Trazado 5219" d="M707.126,104.919a1.931,1.931,0,0,1-2.035-1.463l-3.4-15.47c-.079-.36-.2-1.588,1.513-2.255a13.23,13.23,0,0,1,1.987-.517,10.557,10.557,0,0,1,2.344-.321,2.259,2.259,0,0,1,1.416.475,6.163,6.163,0,0,1,3.308-1.829,7.713,7.713,0,0,1,1.821-.163,6.667,6.667,0,0,1,4.535,1.961,9.76,9.76,0,0,1,2.512,4.9l2.076,9.45c.08.364.2,1.606-1.562,2.281a14.536,14.536,0,0,1-2.1.542,11.46,11.46,0,0,1-2.489.342,1.931,1.931,0,0,1-2.039-1.46l-2-9.094c-.067-.307-.222-.675-.578-.687a1.039,1.039,0,0,0-.243.024,1.014,1.014,0,0,0-.733.48,1.427,1.427,0,0,0-.1,1l1.9,8.641c.1.467.155,1.625-1.569,2.283a14.494,14.494,0,0,1-2.093.54A11.253,11.253,0,0,1,707.126,104.919Z" transform="translate(-700.292 -82.036)" fill="#301b0e"/>
          <path id="Trazado_5220" data-name="Trazado 5220" d="M698.435,69.4c2.758.091,4.956,2.151,5.758,5.8l2.076,9.45c.146.663-1.221.948-2.62,1.239a10.639,10.639,0,0,1-2.162.314c-.407-.013-.688-.124-.749-.4l-2-9.094a2.011,2.011,0,0,0-1.867-1.745,2.471,2.471,0,0,0-2.445,3.117l1.9,8.641c.146.663-1.237.951-2.62,1.239a10.589,10.589,0,0,1-2.149.313c-.406-.013-.684-.125-.746-.4l-3.4-15.47c-.142-.647,1.158-.918,2.458-1.189a9.876,9.876,0,0,1,2.016-.293c.393.013.666.122.726.4L693,73.059a5.506,5.506,0,0,1,3.941-3.528,6.308,6.308,0,0,1,1.494-.135m.08-2.67a9.094,9.094,0,0,0-2.149.192,7.6,7.6,0,0,0-3.252,1.517,4.171,4.171,0,0,0-1.145-.191,11.676,11.676,0,0,0-2.671.349,14.184,14.184,0,0,0-2.2.582,4.212,4.212,0,0,0-1.47.912,3.081,3.081,0,0,0-.868,2.863l3.4,15.47a3.134,3.134,0,0,0,1.67,2.126,3.889,3.889,0,0,0,1.654.4,12.362,12.362,0,0,0,2.8-.37,15.462,15.462,0,0,0,2.3-.6,4.356,4.356,0,0,0,1.489-.9,3.189,3.189,0,0,0,.806-1.232,3.227,3.227,0,0,0,.883.644,3.908,3.908,0,0,0,1.644.389,12.389,12.389,0,0,0,2.815-.37,15.49,15.49,0,0,0,2.311-.6,4.329,4.329,0,0,0,1.491-.9,3.086,3.086,0,0,0,.9-2.9l-2.076-9.451a10.932,10.932,0,0,0-2.879-5.561,8.02,8.02,0,0,0-5.457-2.356Z" transform="translate(-684.684 -66.721)" fill="#301b0e"/>
        </g>
        <g id="Grupo_1567" data-name="Grupo 1567" transform="translate(73.152 2.004)">
          <path id="Trazado_5221" data-name="Trazado 5221" d="M951.527,87.319c-3.619-.119-5.931-2.477-5.89-6.006a5.918,5.918,0,0,1,2.385-4.7,8.645,8.645,0,0,1,1.381-.878c-1.126-.209-1.765-1.406-2.286-2.686a6.123,6.123,0,0,1-.6-2.24,1.994,1.994,0,0,1,1.095-1.824,14.7,14.7,0,0,1,7.28-1.816l.287.007A8.588,8.588,0,0,1,960.9,69.15a7.594,7.594,0,0,1,2.144,5.926l-.119,10.237c0,.367-.158,1.587-1.96,1.865a12.687,12.687,0,0,1-2.016.072c-.244,0-.5-.008-.743-.016a6.874,6.874,0,0,1-1.679-.207,2.283,2.283,0,0,1-1.067-.614,7.059,7.059,0,0,1-3.787.908Z" transform="translate(-944.276 -65.828)" fill="#301b0e"/>
          <path id="Trazado_5222" data-name="Trazado 5222" d="M939.547,53.193c4.1.135,6.6,1.981,6.549,6.549l-.119,10.237c-.008.662-1.3.642-2.6.622-.242,0-.485-.007-.719-.015-1.034-.034-1.907-.147-1.9-.687l.017-1.455a5.2,5.2,0,0,1-4.674,2.228l-.125,0c-2.584-.085-4.606-1.59-4.57-4.65.036-3.093,2.768-4.871,6.6-5.54l2.464-.426.01-.827c.009-.748-.457-1.3-1.48-1.329h-.054a9.791,9.791,0,0,0-4.594,1.171.454.454,0,0,1-.2.046h-.007c-.486-.016-.961-.912-1.352-1.873a5.252,5.252,0,0,1-.5-1.728.677.677,0,0,1,.361-.656,13.448,13.448,0,0,1,6.638-1.669l.262.006m-1.255,12.914h.034a1.9,1.9,0,0,0,2.092-1.738l.012-1.042-1.975.367a1.433,1.433,0,0,0-1.38,1.319,1.121,1.121,0,0,0,1.216,1.093m1.335-15.584-.312-.007a16.2,16.2,0,0,0-7.924,1.965,3.325,3.325,0,0,0-1.826,2.99,7.192,7.192,0,0,0,.694,2.745l0,0,0,0a10.122,10.122,0,0,0,.885,1.754q.139.211.284.391a7.176,7.176,0,0,0-2.745,5.609,7.013,7.013,0,0,0,2.153,5.415,7.63,7.63,0,0,0,5.057,1.947l.174,0a8.822,8.822,0,0,0,3.675-.678,4.13,4.13,0,0,0,.817.329,8.38,8.38,0,0,0,2.016.261c.259.009.518.012.768.016a13.657,13.657,0,0,0,2.248-.088,4.186,4.186,0,0,0,1.641-.582A3.065,3.065,0,0,0,948.7,70.02l.119-10.237a8.856,8.856,0,0,0-2.572-6.917,9.9,9.9,0,0,0-6.617-2.344Z" transform="translate(-928.685 -50.513)" fill="#301b0e"/>
        </g>
        <g id="Grupo_1568" data-name="Grupo 1568" transform="translate(89.877 4.081)">
          <path id="Trazado_5223" data-name="Trazado 5223" d="M1164.511,113.392a16.042,16.042,0,0,1-2.808-.361,9.547,9.547,0,0,1-6.122-4.112,10.088,10.088,0,0,1-1.237-7.771,10.386,10.386,0,0,1,3.612-6.059,9.474,9.474,0,0,1,6.214-2.027,10.293,10.293,0,0,1,1.787.218,12.3,12.3,0,0,1,5.835,2.712,1.966,1.966,0,0,1,.583,2.023,6.962,6.962,0,0,1-1.144,2.314c-1.455,2.209-2.473,2.437-3.112,2.416a1.82,1.82,0,0,1-.316-.038,1.762,1.762,0,0,1-.869-.462,4.5,4.5,0,0,0-2.08-1.125,1.875,1.875,0,0,0-2.28,1.77,2.414,2.414,0,0,0,.2,1.711,1.694,1.694,0,0,0,1.158.812,4.017,4.017,0,0,0,.7.085,4.844,4.844,0,0,0,1.74-.283l.106-.036.111-.019a2.093,2.093,0,0,1,.418-.03,1.947,1.947,0,0,1,.338.041c1.409.3,1.845,1.974,2.068,3.4a8.346,8.346,0,0,1,.057,2.793,1.87,1.87,0,0,1-1.286,1.545A10.685,10.685,0,0,1,1164.511,113.392Z" transform="translate(-1152.711 -91.72)" fill="#301b0e"/>
          <path id="Trazado_5224" data-name="Trazado 5224" d="M1148.574,79.079a8.873,8.873,0,0,1,1.545.189,10.964,10.964,0,0,1,5.218,2.406.713.713,0,0,1,.15.742,6.336,6.336,0,0,1-.952,1.861c-.587.893-1.389,1.834-1.934,1.816a.427.427,0,0,1-.075-.009.375.375,0,0,1-.2-.11,5.894,5.894,0,0,0-2.748-1.478,3.4,3.4,0,0,0-.593-.073,3.326,3.326,0,0,0-3.3,2.867,3.245,3.245,0,0,0,2.4,4.11,5.384,5.384,0,0,0,.94.114,6.25,6.25,0,0,0,2.23-.356.722.722,0,0,1,.144-.012.546.546,0,0,1,.1.012c.544.115.839,1.226,1,2.292a7.29,7.29,0,0,1,.07,2.314c-.063.291-.177.5-.359.549a9.366,9.366,0,0,1-3.224.425,14.767,14.767,0,0,1-2.567-.332c-4.465-.945-7.449-5.008-6.31-10.3,1-4.631,4.558-7.161,8.456-7.033m.08-2.67-.08,2.67.08-2.67a10.992,10.992,0,0,0-3.769.527,10.622,10.622,0,0,0-3.344,1.8,11.7,11.7,0,0,0-4.084,6.817,12.483,12.483,0,0,0-.146,4.69,10.668,10.668,0,0,0,1.566,4.077,10.9,10.9,0,0,0,6.988,4.7,17.4,17.4,0,0,0,3.049.39,12.039,12.039,0,0,0,4.137-.548,3.189,3.189,0,0,0,2.188-2.533,9.6,9.6,0,0,0-.043-3.277,10.108,10.108,0,0,0-.5-2.033,3.793,3.793,0,0,0-1.962-2.255A4.1,4.1,0,0,0,1155.5,87.4a11.081,11.081,0,0,0,1.309-1.649,8.121,8.121,0,0,0,1.335-2.767,3.284,3.284,0,0,0-1.008-3.3,13.607,13.607,0,0,0-6.459-3.025,11.684,11.684,0,0,0-2.027-.247Zm.458,12.435a2.633,2.633,0,0,1-.458-.056.325.325,0,0,1-.257-.16,1.162,1.162,0,0,1-.05-.775c.062-.287.249-.77.557-.76a.644.644,0,0,1,.111.014,3.156,3.156,0,0,1,1.429.789,3.112,3.112,0,0,0,.854.579,3.534,3.534,0,0,0-.5.049l-.222.037-.213.072a3.5,3.5,0,0,1-1.25.211Z" transform="translate(-1137.154 -76.403)" fill="#301b0e"/>
        </g>
        <g id="Grupo_1569" data-name="Grupo 1569" transform="translate(103.654)">
          <path id="Trazado_5225" data-name="Trazado 5225" d="M1342.433,74.263a8.924,8.924,0,0,1-2.9-.941c-2.241-.981-3.73-1.633-3.976-2.879l-.935-4.081-.974,2.164a1.863,1.863,0,0,1-1.846,1.059,8.469,8.469,0,0,1-2.8-.891,14.544,14.544,0,0,1-1.944-.962c-1.59-1.024-1.214-2.214-1.06-2.554l9.876-21.932a1.862,1.862,0,0,1,1.845-1.059,8.543,8.543,0,0,1,2.816.9,14.363,14.363,0,0,1,1.931.957c1.587,1.024,1.211,2.213,1.058,2.553l-4.026,8.942,3.181-1.479a2.118,2.118,0,0,1,1.06-.22,11.5,11.5,0,0,1,3.613,1.2l.271.119a12.686,12.686,0,0,1,1.666.826c1.48.943,1.127,2.054.984,2.373a2.063,2.063,0,0,1-.88.9l-.054.032-7.319,3.457,2.264,9.315.007.041a1.945,1.945,0,0,1-.107,1.161A1.763,1.763,0,0,1,1342.433,74.263Z" transform="translate(-1324.484 -40.85)" fill="#301b0e"/>
          <path id="Trazado_5226" data-name="Trazado 5226" d="M1322.071,28.206a8.015,8.015,0,0,1,2.306.782c1.294.566,2.573,1.126,2.294,1.745l-5.509,12.235,6.53-3.036a.746.746,0,0,1,.4-.075,12.906,12.906,0,0,1,3.374,1.2c1.125.492,2.166.966,1.955,1.434a.794.794,0,0,1-.339.3l-8.245,3.895,2.508,10.319a.69.69,0,0,1-.011.393c-.071.156-.234.216-.463.209a8.688,8.688,0,0,1-2.394-.826c-1.54-.674-3.1-1.355-3.192-1.921l-1.847-8.059-2.639,5.86a.529.529,0,0,1-.561.269,7.944,7.944,0,0,1-2.29-.776c-1.31-.573-2.588-1.133-2.309-1.752l9.876-21.932a.528.528,0,0,1,.561-.269m.08-2.67h0a3.217,3.217,0,0,0-3.129,1.85l-9.875,21.932a3.085,3.085,0,0,0,.288,3.022,4.334,4.334,0,0,0,1.273,1.192,15.512,15.512,0,0,0,2.137,1.066,9.364,9.364,0,0,0,3.309,1.007,3.373,3.373,0,0,0,2.333-.782l.132.577a3.419,3.419,0,0,0,1.222,1.937,7.206,7.206,0,0,0,1.177.78c.7.384,1.543.753,2.357,1.109a9.9,9.9,0,0,0,3.412,1.057,3.116,3.116,0,0,0,3.031-1.789,3.2,3.2,0,0,0,.2-1.93l-.014-.082-.02-.081-2-8.229,6.278-2.966.114-.054.108-.064a3.393,3.393,0,0,0,1.42-1.507,2.965,2.965,0,0,0-.333-2.984,4.133,4.133,0,0,0-1.159-1.052,13.7,13.7,0,0,0-1.853-.926l-.269-.118a12.209,12.209,0,0,0-4.124-1.314,3.523,3.523,0,0,0-1.553.284l2.543-5.647a3.089,3.089,0,0,0-.287-3.021,4.333,4.333,0,0,0-1.272-1.192,15.3,15.3,0,0,0-2.125-1.061,9.429,9.429,0,0,0-3.325-1.013Z" transform="translate(-1308.878 -25.534)" fill="#301b0e"/>
        </g>
        <g id="Grupo_1570" data-name="Grupo 1570" transform="translate(19.457 15.481)">
          <path id="Trazado_5227" data-name="Trazado 5227" d="M289.024,258.333a8.754,8.754,0,0,1-6.54-3.888l-5.865-7.8c-.289-.385-.823-1.421.474-2.723a14.152,14.152,0,0,1,1.67-1.336c1.162-.841,2.165-1.567,3.177-1.534a1.8,1.8,0,0,1,1.41.72l5.634,7.492a.954.954,0,0,0,.622.431.682.682,0,0,0,.4-.159.994.994,0,0,0,.465-.735,1.441,1.441,0,0,0-.329-.953l-5.353-7.118c-.226-.3-.859-1.384.469-2.719a14.193,14.193,0,0,1,1.676-1.34c1.155-.836,2.153-1.558,3.162-1.525a1.8,1.8,0,0,1,1.411.722l9.584,12.744a1.94,1.94,0,0,1-.417,2.679,12.661,12.661,0,0,1-1.593,1.283c-1.094.792-2.038,1.475-3.031,1.443a1.949,1.949,0,0,1-.463-.071,6.029,6.029,0,0,1-2.24,3.005A6.957,6.957,0,0,1,289.024,258.333Z" transform="translate(-274.909 -233.811)" fill="#301b0e"/>
          <path id="Trazado_5228" data-name="Trazado 5228" d="M274.553,221.167a.442.442,0,0,1,.359.177l9.584,12.744c.411.546-.658,1.32-1.727,2.094a5.112,5.112,0,0,1-2.182,1.184.453.453,0,0,1-.367-.183l-1.083-1.44a5.409,5.409,0,0,1-2.1,4.816,5.561,5.561,0,0,1-3.475,1.122c-1.914-.063-3.86-1.18-5.487-3.343l-5.865-7.8c-.411-.547.739-1.379,1.862-2.192a5.581,5.581,0,0,1,2.327-1.275.44.44,0,0,1,.357.176l5.634,7.492a2.241,2.241,0,0,0,1.675.975,2,2,0,0,0,1.252-.417,2.393,2.393,0,0,0,.418-3.556l-5.353-7.118c-.411-.547.725-1.369,1.862-2.192a5.531,5.531,0,0,1,2.312-1.266m.08-2.67c-1.48-.049-2.709.841-4.011,1.783a15.141,15.141,0,0,0-1.842,1.482,4.261,4.261,0,0,0-.977,1.423,3.154,3.154,0,0,0-.216,1.45,3.279,3.279,0,0,0-1.111-.231c-1.483-.049-2.718.845-4.026,1.792a15.11,15.11,0,0,0-1.836,1.477,4.284,4.284,0,0,0-.978,1.417,3.085,3.085,0,0,0,.384,3.033l5.865,7.8c2.079,2.765,4.776,4.339,7.592,4.432a8.315,8.315,0,0,0,5.175-1.639,7.435,7.435,0,0,0,2.315-2.69,7.278,7.278,0,0,0,3.42-1.687,13.6,13.6,0,0,0,1.767-1.433,4.093,4.093,0,0,0,.954-1.452,3.063,3.063,0,0,0-.428-2.944L277.1,219.763a3.193,3.193,0,0,0-2.464-1.266Z" transform="translate(-259.404 -218.495)" fill="#301b0e"/>
        </g>
        <g id="Grupo_1571" data-name="Grupo 1571" transform="translate(54.617 14.887)">
          <path id="Trazado_5229" data-name="Trazado 5229" d="M697.974,211.641c0-.013,0-.026,0-.04v.044a1.285,1.285,0,0,1,.038-.337l-.011.043.008-.031a.179.179,0,0,0,0-.127.164.164,0,0,0-.216-.084.159.159,0,0,0-.086.089,1.376,1.376,0,0,0-.054.494.164.164,0,0,0,.064.106.164.164,0,0,0,.229-.033l.021-.037a.167.167,0,0,0,.01-.087Z" transform="translate(-697.647 -211.096)" fill="#301b0e"/>
        </g>
        <path id="Trazado_5230" data-name="Trazado 5230" d="M511.61,145.051a8.23,8.23,0,0,0-.784-2.908,7.742,7.742,0,0,0-3.1-3.539,7.172,7.172,0,0,0-1.006-.488c-.006-.045-.012-.09-.019-.135l.056-.821a.373.373,0,0,0-.006-.17.13.13,0,0,0-.146-.08.127.127,0,0,0-.049.211c0,.007,0,.014,0,.021l-.007.1c-.018-.063-.036-.127-.055-.19a.1.1,0,0,0-.027-.042c.017-.33.019-.685,0-1.07v-.016a7.809,7.809,0,0,0-.541-2.958,3.345,3.345,0,0,0-2.718-2.006H503.2c-.259-.026-.521-.043-.78-.051a13.992,13.992,0,0,0-6.248,1.365,11.79,11.79,0,0,0-5.474,4.321,7,7,0,0,0-1.069,3.42,7.981,7.981,0,0,0,.784,3.692,7.39,7.39,0,0,0,3,3.405,6.922,6.922,0,0,0,.748.375,4.742,4.742,0,0,0-.138.587,9.233,9.233,0,0,0-.075,2.033,7.752,7.752,0,0,0,.54,3.007,3.336,3.336,0,0,0,2.8,2.021c.2.017.394.029.592.035a15.247,15.247,0,0,0,6.617-1.454,18.188,18.188,0,0,0,3.886-2.236,8.438,8.438,0,0,0,2.8-3.594A6.626,6.626,0,0,0,511.61,145.051Z" transform="translate(-451.694 -122.443)" fill="#301b0e"/>
      </g>
      <g id="Grupo_1575" data-name="Grupo 1575" transform="translate(2.72 2.672)">
        <g id="Grupo_1573" data-name="Grupo 1573">
          <path id="Trazado_5231" data-name="Trazado 5231" d="M68.192,427.842,50.962,413.824a.458.458,0,0,1-.088-.65l4.883-5.8c2.238-2.659,6.158-4.271,9.484-1.565a4.484,4.484,0,0,1,1.763,3.471,6.761,6.761,0,0,1,6.779.842c4.366,3.552,3.2,8.029.569,11.158L68.858,427.8A.489.489,0,0,1,68.192,427.842Zm-6.081-17.379a1.636,1.636,0,0,0-2.278.183l-1.521,1.806,2.508,2.04,1.521-1.806A1.567,1.567,0,0,0,62.111,410.463Zm7.581,4.389a2.215,2.215,0,0,0-3.227.5L64.6,417.569l3.314,2.7,1.863-2.213A2.128,2.128,0,0,0,69.692,414.851Z" transform="translate(-50.775 -376.687)" fill="#f88111"/>
          <path id="Trazado_5232" data-name="Trazado 5232" d="M299.231,268.97l-5.865-7.8c-.411-.547.739-1.379,1.862-2.192s2.273-1.645,2.684-1.1l5.634,7.492a2,2,0,0,0,2.927.558,2.393,2.393,0,0,0,.418-3.556l-5.353-7.118c-.411-.547.725-1.369,1.862-2.192s2.26-1.635,2.671-1.089l9.584,12.744c.411.547-.658,1.32-1.727,2.094s-2.138,1.547-2.549,1l-1.083-1.44a5.409,5.409,0,0,1-2.1,4.816C305.366,273.238,301.877,272.489,299.231,268.97Z" transform="translate(-273.825 -236.318)" fill="#f88111"/>
          <path id="Trazado_5233" data-name="Trazado 5233" d="M528.688,183.1a.652.652,0,0,1-.54-.452,5.878,5.878,0,0,1-.3-2.011c-.055-1.12-.011-2.066.511-2.3a.669.669,0,0,1,.3-.062,9.863,9.863,0,0,0,4.071-.617c1.457-.643,1.809-1.162,1.537-1.75-.3-.649-1.339-.462-2.584-.24-2.317.46-5.927,1.236-7.617-2.431-1.62-3.516.51-6.182,4.405-7.9a10.971,10.971,0,0,1,5.642-1.093.646.646,0,0,1,.518.443,6.057,6.057,0,0,1,.3,1.974c.042,1.053-.059,2.115-.565,2.338a.481.481,0,0,1-.258.041,7.717,7.717,0,0,0-3.543.4c-1.15.508-1.542,1.1-1.285,1.657s1.229.384,2.467.146c2.363-.48,6.016-1.2,7.782,2.63,1.8,3.857-1.018,6.28-4.975,8.027A12.119,12.119,0,0,1,528.688,183.1Z" transform="translate(-485.597 -155.746)" fill="#f88111"/>
          <path id="Trazado_5234" data-name="Trazado 5234" d="M721.985,118.495l-3.4-15.47c-.142-.647,1.158-.918,2.458-1.189s2.6-.541,2.743.106l.384,1.748a5.506,5.506,0,0,1,3.941-3.528c3.44-.716,6.31,1.377,7.252,5.665l2.076,9.45c.146.663-1.22.948-2.62,1.239-1.366.284-2.765.576-2.911-.088l-2-9.094a1.983,1.983,0,0,0-2.437-1.693,2.411,2.411,0,0,0-1.874,3.064l1.9,8.641c.146.663-1.237.951-2.62,1.239S722.131,119.158,721.985,118.495Z" transform="translate(-664.999 -96.719)" fill="#ffb014"/>
          <path id="Trazado_5235" data-name="Trazado 5235" d="M962.589,96.65c.036-3.093,2.768-4.871,6.6-5.54l2.464-.426.01-.827c.009-.761-.473-1.314-1.534-1.33a9.791,9.791,0,0,0-4.594,1.171.454.454,0,0,1-.2.046c-.488-.007-.966-.908-1.359-1.873a5.255,5.255,0,0,1-.5-1.728.677.677,0,0,1,.361-.656,13.448,13.448,0,0,1,6.638-1.669c4.26.065,6.866,1.891,6.812,6.555l-.119,10.237c-.008.661-1.3.642-2.6.622-1.313-.02-2.627-.04-2.619-.7l.017-1.455a5.2,5.2,0,0,1-4.674,2.228C964.64,101.263,962.553,99.759,962.589,96.65ZM971.6,95l.012-1.042-1.975.367a1.432,1.432,0,0,0-1.38,1.319,1.128,1.128,0,0,0,1.25,1.094A1.9,1.9,0,0,0,971.6,95Z" transform="translate(-889.436 -81.812)" fill="#ffb014"/>
          <path id="Trazado_5236" data-name="Trazado 5236" d="M1171.3,116.744c1.128-5.239,5.536-7.789,10-6.844a10.964,10.964,0,0,1,5.218,2.406.713.713,0,0,1,.15.742,6.339,6.339,0,0,1-.952,1.861c-.615.935-1.465,1.922-2.009,1.807a.374.374,0,0,1-.2-.11,5.9,5.9,0,0,0-2.748-1.478,3.278,3.278,0,0,0-3.892,2.794,3.245,3.245,0,0,0,2.405,4.11,5.9,5.9,0,0,0,3.17-.242.6.6,0,0,1,.241,0c.544.115.839,1.226,1.005,2.292a7.3,7.3,0,0,1,.07,2.314c-.063.291-.177.5-.359.549a11.061,11.061,0,0,1-5.791.093C1173.148,126.094,1170.164,122.031,1171.3,116.744Z" transform="translate(-1081.182 -105.625)" fill="#ffb014"/>
          <path id="Trazado_5237" data-name="Trazado 5237" d="M1342.793,81.037l9.876-21.932c.279-.619,1.573-.053,2.867.513s2.573,1.126,2.294,1.745L1352.32,73.6l6.531-3.036c.55-.32,2.185.432,3.771,1.126,1.125.492,2.165.966,1.954,1.434a.794.794,0,0,1-.34.3l-8.245,3.895,2.508,10.319a.688.688,0,0,1-.011.393c-.238.529-1.547-.044-2.857-.618-1.54-.674-3.1-1.355-3.192-1.921l-1.848-8.059-2.639,5.86c-.279.619-1.573.053-2.852-.507C1343.793,82.216,1342.514,81.656,1342.793,81.037Z" transform="translate(-1239.102 -58.836)" fill="#ffb014"/>
        </g>
        <g id="Grupo_1574" data-name="Grupo 1574" transform="translate(6.445 1.095)">
          <path id="Trazado_5238" data-name="Trazado 5238" d="M131.115,421.1c0-.121.031-.565,1.359-1.237a6.206,6.206,0,0,1,3.883-.915c1.059.154,2.528.713,2.544,1.391a.816.816,0,0,1-.359.592c-.737.507-1.611-.556-3-.566-1.912-.014-2.914,1.971-3.92,1.466A.906.906,0,0,1,131.115,421.1Z" transform="translate(-131.115 -391.11)" fill="#fff" opacity="0.33"/>
          <path id="Trazado_5239" data-name="Trazado 5239" d="M232.113,473.332c0-.121.031-.564,1.359-1.237a6.2,6.2,0,0,1,3.883-.915c1.059.154,2.528.713,2.544,1.391a.816.816,0,0,1-.359.592c-.737.507-1.611-.556-3-.566-1.912-.014-2.915,1.97-3.92,1.466A.906.906,0,0,1,232.113,473.332Z" transform="translate(-224.01 -439.146)" fill="#fff" opacity="0.33"/>
          <path id="Trazado_5240" data-name="Trazado 5240" d="M309.036,349.3c.023-.073.131-.335,1.069-.485a3.966,3.966,0,0,1,2.532.195c.61.3,1.388.917,1.262,1.329a.526.526,0,0,1-.335.288c-.547.164-.864-.645-1.7-.92-1.154-.376-2.156.629-2.664.131A.568.568,0,0,1,309.036,349.3Z" transform="translate(-294.745 -326.542)" fill="#fff" opacity="0.33"/>
          <path id="Trazado_5241" data-name="Trazado 5241" d="M411.631,274.714c.023-.073.131-.335,1.069-.485a3.967,3.967,0,0,1,2.532.2c.61.3,1.388.917,1.262,1.329a.526.526,0,0,1-.335.288c-.547.164-.864-.645-1.7-.92-1.154-.376-2.157.629-2.664.131A.567.567,0,0,1,411.631,274.714Z" transform="translate(-389.109 -257.936)" fill="#fff" opacity="0.33"/>
          <path id="Trazado_5242" data-name="Trazado 5242" d="M576.411,180.053c0-.1.044-.455,1.142-.954a5.03,5.03,0,0,1,3.173-.61c.851.16,2.02.661,2.009,1.21a.662.662,0,0,1-.311.466c-.614.385-1.284-.5-2.41-.559-1.546-.076-2.426,1.5-3.222,1.054A.732.732,0,0,1,576.411,180.053Z" transform="translate(-540.686 -169.922)" fill="#fff" opacity="0.33"/>
          <path id="Trazado_5243" data-name="Trazado 5243" d="M623.676,255.664c.023-.1.137-.437,1.316-.708a5.052,5.052,0,0,1,3.235.032c.8.325,1.844,1.047,1.721,1.582-.06.262-.38.387-.4.395-.681.256-1.155-.747-2.247-1.024-1.5-.38-2.685.983-3.375.393A.726.726,0,0,1,623.676,255.664Z" transform="translate(-584.147 -240.082)" fill="#fff" opacity="0.33"/>
          <path id="Trazado_5244" data-name="Trazado 5244" d="M818.445,115.55c.017-.1.111-.444,1.271-.782a5.047,5.047,0,0,1,3.231-.153c.819.279,1.9.94,1.812,1.481-.045.265-.356.408-.376.417-.665.294-1.2-.68-2.3-.894-1.52-.294-2.622,1.135-3.345.586A.726.726,0,0,1,818.445,115.55Z" transform="translate(-763.296 -111.043)" fill="#fff" opacity="0.33"/>
          <path id="Trazado_5245" data-name="Trazado 5245" d="M1050.668,98.073c.047-.09.249-.4,1.5-.384a5.214,5.214,0,0,1,3.235.829c.72.523,1.582,1.5,1.322,2.007a.7.7,0,0,1-.5.3c-.748.088-.967-1.032-1.992-1.578-1.406-.75-2.943.322-3.484-.438A.743.743,0,0,1,1050.668,98.073Z" transform="translate(-976.836 -95.666)" fill="#fff" opacity="0.33"/>
          <path id="Trazado_5246" data-name="Trazado 5246" d="M1269.028,126.231c.036-.094.2-.428,1.446-.546a5.218,5.218,0,0,1,3.308.469c.775.441,1.742,1.32,1.541,1.85a.7.7,0,0,1-.465.35c-.733.17-1.078-.92-2.157-1.351-1.483-.591-2.887.643-3.51-.053A.745.745,0,0,1,1269.028,126.231Z" transform="translate(-1177.703 -121.353)" fill="#fff" opacity="0.33"/>
          <path id="Trazado_5247" data-name="Trazado 5247" d="M1535.049,212.487c.044-.059.225-.262,1.124-.111a3.784,3.784,0,0,1,2.234.953c.459.455.967,1.255.722,1.589a.512.512,0,0,1-.4.158c-.549-.019-.579-.849-1.253-1.355-.927-.695-2.155-.093-2.458-.7A.54.54,0,0,1,1535.049,212.487Z" transform="translate(-1422.338 -201.102)" fill="#fff" opacity="0.33"/>
          <path id="Trazado_5248" data-name="Trazado 5248" d="M1466.783,72.647c.044-.059.225-.263,1.123-.111a3.783,3.783,0,0,1,2.234.953c.459.455.967,1.255.722,1.589a.513.513,0,0,1-.4.158c-.548-.019-.578-.849-1.253-1.355-.927-.695-2.155-.093-2.458-.7A.54.54,0,0,1,1466.783,72.647Z" transform="translate(-1359.548 -72.482)" fill="#fff" opacity="0.33"/>
        </g>
      </g>
    </g>
  </g>
</svg>
