<svg xmlns="http://www.w3.org/2000/svg" width="80.268" height="24.75" viewBox="0 0 80.268 24.75">
  <g id="Grupo_1167" data-name="Grupo 1167" transform="translate(0 0)">
    <path id="Trazado_5191" data-name="Trazado 5191" d="M869.389,193.309h3.054c0,1.846-.012,4.019-.012,5.9H878.9c0,1.064.012,1.7.012,2.761h-6.425c-.012.266-.028.464-.028.662q0,4.74,0,9.48a2.354,2.354,0,0,0,2.172,2.685,6.342,6.342,0,0,0,4.162-.5l1.491,2.634a7.353,7.353,0,0,1-3.047,1.04,7.8,7.8,0,0,1-5.88-1.3,4.778,4.778,0,0,1-1.989-3.932q-.023-9.535-.007-19.071c0-.107.018-.215.031-.356M862.8,218h3.061V199.213H862.8Zm3.072-24.682H862.8V196.4h3.072Zm-9,5.9-4.706,14.047-.076-.222-.01,0-.373-1.128-4.327-12.7h-3.238l-4.706,14.047-.155-.453c-.013-.03-.024-.058-.033-.086l-.1-.305-4.5-13.2h-3.129c.028.094.054.179.081.262q1.522,4.6,3.046,9.193c.865,2.606,1.721,5.214,2.6,7.815a2.174,2.174,0,0,0,2.306,1.555,2.359,2.359,0,0,0,2.155-1.879c1.019-3.063,2.022-6.131,3.035-9.2.324-.98.657-1.958,1.015-3.02.092.21.154.323.194.444q.84,2.536,1.677,5.073c.782,2.359,1.553,4.723,2.356,7.075a2.094,2.094,0,0,0,1.84,1.493,2.144,2.144,0,0,0,2.225-1.065,5.357,5.357,0,0,0,.477-1.121q2.213-6.683,4.411-13.372c.351-1.065.7-2.135,1.065-3.257Z" transform="translate(-800.014 -193.309)" fill="#fff"/>
    <path id="Trazado_5192" data-name="Trazado 5192" d="M207.224,193.979v7.866a1.506,1.506,0,0,1-1.5,1.5h-.046a1.506,1.506,0,0,1-1.5-1.5v-7.866a12.39,12.39,0,1,0,3.049,0Z" transform="translate(-193.309 -193.946)" fill="#fff"/>
  </g>
</svg>
