<svg id="Grupo_1580" data-name="Grupo 1580" xmlns="http://www.w3.org/2000/svg" width="245.03" height="105.937" viewBox="0 0 245.03 105.937">
  <g id="Grupo_1576" data-name="Grupo 1576">
    <g id="Grupo_1572" data-name="Grupo 1572" transform="translate(0 0)">
      <g id="Grupo_1565" data-name="Grupo 1565" transform="translate(0 51.881)">
        <path id="Trazado_5217" data-name="Trazado 5217" d="M69.462,436.815a3.559,3.559,0,0,1-2.118-.787L35.1,409.8a3.422,3.422,0,0,1-1.245-2.194,3.269,3.269,0,0,1,.736-2.544L43.729,394.2c3.524-4.185,8.427-6.592,13.118-6.437a13.513,13.513,0,0,1,8.212,3.183,12.336,12.336,0,0,1,3.712,5.149,15.339,15.339,0,0,1,3.384-.257,14.891,14.891,0,0,1,8.89,3.179c4.35,3.539,6.552,7.952,6.369,12.763-.189,4.974-2.8,9.074-4.96,11.637L72.173,435.634A3.366,3.366,0,0,1,69.462,436.815ZM68.1,416.406l1.869-2.219c.6-.708,1.112-1.712.183-2.468a1.364,1.364,0,0,0-.812-.351,2.309,2.309,0,0,0-1.644.97l-1.868,2.219Zm-13.277-10.8,1.227-1.458a.414.414,0,0,0,.091-.315.472.472,0,0,0-.176-.325.541.541,0,0,0-.328-.127.434.434,0,0,0-.352.144l-1.228,1.458Z" transform="translate(-31.281 -385.261)" fill="#301b0e"/>
        <path id="Trazado_5218" data-name="Trazado 5218" d="M42.367,376.115a11,11,0,0,1,6.669,2.607c1.8,1.464,3.484,4.038,3.3,6.495a11.634,11.634,0,0,1,5.339-1.027,12.393,12.393,0,0,1,7.346,2.6c8.17,6.647,5.994,15.024,1.064,20.88L55.8,419.885a.831.831,0,0,1-.672.28.965.965,0,0,1-.574-.211L22.314,393.723a.858.858,0,0,1-.164-1.217l9.138-10.855c2.742-3.257,6.834-5.676,11.079-5.536m-1.6,18.859,2.846-3.38a2.933,2.933,0,0,0-.43-4.161,3.123,3.123,0,0,0-1.872-.7,2.983,2.983,0,0,0-2.391,1.045l-2.846,3.38,4.693,3.818m13.277,10.8,3.487-4.142c1.663-1.976,1.783-4.405-.162-5.988a3.906,3.906,0,0,0-2.356-.927,4.714,4.714,0,0,0-3.683,1.871l-3.487,4.142,6.2,5.044M42.517,371.118a17.519,17.519,0,0,0-8.664,2.078,21.873,21.873,0,0,0-6.493,5.259l-9.138,10.855a5.736,5.736,0,0,0-1.294,4.463,5.915,5.915,0,0,0,2.147,3.794L51.32,423.8a6.155,6.155,0,0,0,3.661,1.363,5.9,5.9,0,0,0,4.75-2.082l10.281-12.212A25.573,25.573,0,0,0,73.8,404.91a19.264,19.264,0,0,0,1.747-7.173c.149-3.918-1-9.665-7.294-14.789a17.481,17.481,0,0,0-10.433-3.755,18.412,18.412,0,0,0-1.922.036,14.954,14.954,0,0,0-3.63-4.352,16.252,16.252,0,0,0-9.756-3.759Z" transform="translate(-16.876 -371.11)" fill="#301b0e"/>
      </g>
      <g id="Grupo_1566" data-name="Grupo 1566" transform="translate(100.257 6.183)">
        <path id="Trazado_5219" data-name="Trazado 5219" d="M711.895,123.692c-3-.1-3.673-2.12-3.808-2.737l-6.36-28.949c-.148-.674-.382-2.972,2.832-4.22a24.762,24.762,0,0,1,3.719-.968,19.754,19.754,0,0,1,4.385-.6,4.226,4.226,0,0,1,2.649.889,11.534,11.534,0,0,1,6.191-3.422,14.433,14.433,0,0,1,3.409-.306,12.477,12.477,0,0,1,8.486,3.669,18.264,18.264,0,0,1,4.7,9.166l3.886,17.684c.15.682.382,3.005-2.923,4.268a27.2,27.2,0,0,1-3.929,1.014,21.447,21.447,0,0,1-4.658.64c-3-.1-3.679-2.117-3.815-2.733l-3.739-17.018c-.126-.574-.416-1.263-1.081-1.285a1.944,1.944,0,0,0-.455.046,1.9,1.9,0,0,0-1.371.9,2.671,2.671,0,0,0-.186,1.871l3.553,16.17c.192.874.29,3.041-2.936,4.272a27.11,27.11,0,0,1-3.916,1.011A21.055,21.055,0,0,1,711.895,123.692Z" transform="translate(-699.106 -80.872)" fill="#301b0e"/>
        <path id="Trazado_5220" data-name="Trazado 5220" d="M710.415,71.726c5.161.17,9.274,4.024,10.774,10.854l3.885,17.684c.273,1.242-2.284,1.774-4.9,2.319a19.907,19.907,0,0,1-4.045.588c-.761-.025-1.288-.231-1.4-.752L710.986,85.4a3.762,3.762,0,0,0-3.493-3.266,4.5,4.5,0,0,0-1.068.1c-2.926.609-4.073,3.159-3.507,5.733l3.553,16.17c.272,1.242-2.315,1.78-4.9,2.319a19.813,19.813,0,0,1-4.021.586c-.759-.025-1.28-.233-1.4-.757l-6.36-28.949c-.266-1.211,2.167-1.718,4.6-2.224a18.481,18.481,0,0,1,3.773-.548c.736.024,1.246.228,1.359.746l.719,3.27c1.4-3.142,3.525-5.8,7.375-6.6a11.8,11.8,0,0,1,2.8-.253m.15-5a17.016,17.016,0,0,0-4.021.358,14.225,14.225,0,0,0-6.085,2.838,7.8,7.8,0,0,0-2.143-.358,21.851,21.851,0,0,0-5,.653,26.544,26.544,0,0,0-4.125,1.088,7.88,7.88,0,0,0-2.751,1.706,5.765,5.765,0,0,0-1.624,5.357l6.36,28.948A5.864,5.864,0,0,0,694.3,111.3a7.277,7.277,0,0,0,3.1.741,23.131,23.131,0,0,0,5.245-.692,28.928,28.928,0,0,0,4.309-1.126,8.151,8.151,0,0,0,2.787-1.682,5.965,5.965,0,0,0,1.508-2.305,6.042,6.042,0,0,0,1.653,1.2,7.314,7.314,0,0,0,3.077.728,23.184,23.184,0,0,0,5.268-.693,28.986,28.986,0,0,0,4.324-1.129,8.1,8.1,0,0,0,2.79-1.692,5.774,5.774,0,0,0,1.689-5.424l-3.885-17.685a20.458,20.458,0,0,0-5.388-10.407,15.009,15.009,0,0,0-10.212-4.409Z" transform="translate(-684.685 -66.721)" fill="#301b0e"/>
      </g>
      <g id="Grupo_1567" data-name="Grupo 1567" transform="translate(136.889 3.75)">
        <path id="Trazado_5221" data-name="Trazado 5221" d="M956.659,104.88c-6.772-.223-11.1-4.635-11.022-11.24a11.074,11.074,0,0,1,4.463-8.8,16.187,16.187,0,0,1,2.584-1.642c-2.107-.39-3.3-2.63-4.278-5.026a11.457,11.457,0,0,1-1.122-4.192,3.731,3.731,0,0,1,2.049-3.413,27.517,27.517,0,0,1,13.623-3.4q.271,0,.537.013c4.626.153,8.231,1.4,10.714,3.7,2.718,2.522,4.068,6.253,4.012,11.09L978,101.129c-.008.687-.3,2.97-3.668,3.491a23.741,23.741,0,0,1-3.772.134c-.457-.007-.93-.014-1.391-.029a12.86,12.86,0,0,1-3.141-.388,4.272,4.272,0,0,1-2-1.15,13.208,13.208,0,0,1-7.086,1.7Z" transform="translate(-943.091 -64.664)" fill="#301b0e"/>
        <path id="Trazado_5222" data-name="Trazado 5222" d="M949.011,55.528c7.68.253,12.355,3.708,12.256,12.254l-.223,19.157c-.014,1.238-2.441,1.2-4.867,1.164-.453-.007-.907-.014-1.345-.028-1.936-.064-3.568-.275-3.556-1.285l.031-2.723c-1.858,2.572-4.461,4.235-8.746,4.17l-.234-.006c-4.836-.159-8.618-2.976-8.552-8.7.067-5.787,5.18-9.114,12.348-10.367l4.611-.8.018-1.547c.016-1.4-.855-2.423-2.77-2.487l-.1,0a18.323,18.323,0,0,0-8.6,2.191.85.85,0,0,1-.379.087h-.014c-.909-.03-1.8-1.708-2.53-3.505a9.828,9.828,0,0,1-.939-3.233,1.267,1.267,0,0,1,.676-1.228,25.164,25.164,0,0,1,12.421-3.123q.248,0,.491.012m-2.349,24.165.063,0a3.55,3.55,0,0,0,3.914-3.253l.023-1.95-3.7.687a2.681,2.681,0,0,0-2.581,2.468,2.1,2.1,0,0,0,2.276,2.046m2.5-29.162c-.193-.006-.388-.011-.583-.014a30.319,30.319,0,0,0-14.828,3.677,6.222,6.222,0,0,0-3.417,5.595,13.457,13.457,0,0,0,1.3,5.137l0,.007,0,.007a18.968,18.968,0,0,0,1.656,3.283q.26.395.531.732a13.428,13.428,0,0,0-5.137,10.5,13.124,13.124,0,0,0,4.028,10.133,14.279,14.279,0,0,0,9.463,3.644l.326.008a16.508,16.508,0,0,0,6.878-1.268,7.729,7.729,0,0,0,1.528.617,15.681,15.681,0,0,0,3.773.488c.484.016.969.023,1.437.031a25.557,25.557,0,0,0,4.207-.164,7.833,7.833,0,0,0,3.071-1.09,5.736,5.736,0,0,0,2.737-4.832l.223-19.157c.064-5.565-1.554-9.92-4.813-12.943-2.949-2.737-7.115-4.212-12.382-4.386Z" transform="translate(-928.685 -50.513)" fill="#301b0e"/>
      </g>
      <g id="Grupo_1568" data-name="Grupo 1568" transform="translate(168.186 7.637)">
        <path id="Trazado_5223" data-name="Trazado 5223" d="M1173.61,131.11a30.018,30.018,0,0,1-5.254-.675,17.866,17.866,0,0,1-11.456-7.695,18.877,18.877,0,0,1-2.315-14.543,19.435,19.435,0,0,1,6.76-11.338,17.729,17.729,0,0,1,11.628-3.793,19.26,19.26,0,0,1,3.343.408,23.016,23.016,0,0,1,10.919,5.075,3.678,3.678,0,0,1,1.091,3.786,13.034,13.034,0,0,1-2.141,4.331c-2.722,4.134-4.628,4.56-5.824,4.521a3.407,3.407,0,0,1-.591-.071,3.3,3.3,0,0,1-1.625-.865,8.411,8.411,0,0,0-3.892-2.106,3.8,3.8,0,0,0-.658-.082c-1.736-.057-3.152,1.275-3.609,3.394a4.518,4.518,0,0,0,.369,3.2,3.17,3.17,0,0,0,2.168,1.519,7.519,7.519,0,0,0,1.309.159,9.066,9.066,0,0,0,3.255-.53l.2-.068.208-.035a3.919,3.919,0,0,1,.782-.056,3.638,3.638,0,0,1,.632.077c2.636.558,3.453,3.694,3.869,6.364a15.626,15.626,0,0,1,.106,5.226,3.5,3.5,0,0,1-2.407,2.892A20,20,0,0,1,1173.61,131.11Z" transform="translate(-1151.529 -90.556)" fill="#301b0e"/>
        <path id="Trazado_5224" data-name="Trazado 5224" d="M1158.523,81.411a16.6,16.6,0,0,1,2.892.354,20.517,20.517,0,0,1,9.765,4.5,1.334,1.334,0,0,1,.281,1.388,11.853,11.853,0,0,1-1.782,3.483c-1.1,1.671-2.6,3.431-3.618,3.4a.8.8,0,0,1-.14-.017.7.7,0,0,1-.375-.206,11.028,11.028,0,0,0-5.142-2.765,6.363,6.363,0,0,0-1.11-.136c-3-.1-5.459,2.045-6.173,5.365-.8,3.692,1.016,6.954,4.5,7.691a10.078,10.078,0,0,0,1.76.213,11.7,11.7,0,0,0,4.173-.666,1.349,1.349,0,0,1,.27-.022,1.019,1.019,0,0,1,.181.023c1.017.215,1.569,2.294,1.881,4.289a13.643,13.643,0,0,1,.131,4.33c-.117.545-.332.942-.672,1.028a17.527,17.527,0,0,1-6.034.795,27.628,27.628,0,0,1-4.8-.621c-8.355-1.768-13.938-9.372-11.807-19.266,1.866-8.667,8.53-13.4,15.823-13.16m.151-5-.151,5,.15-5a20.569,20.569,0,0,0-7.052.986,19.875,19.875,0,0,0-6.258,3.362,21.884,21.884,0,0,0-7.642,12.756,23.358,23.358,0,0,0-.272,8.776,19.954,19.954,0,0,0,2.931,7.629,20.405,20.405,0,0,0,13.076,8.8,32.574,32.574,0,0,0,5.706.73,22.532,22.532,0,0,0,7.741-1.026,5.969,5.969,0,0,0,4.094-4.74,17.976,17.976,0,0,0-.081-6.133,18.923,18.923,0,0,0-.94-3.8,7.1,7.1,0,0,0-3.672-4.22,7.664,7.664,0,0,0,5.189-2.559,20.724,20.724,0,0,0,2.45-3.086,15.189,15.189,0,0,0,2.5-5.178,6.144,6.144,0,0,0-1.887-6.173,25.463,25.463,0,0,0-12.086-5.66,21.868,21.868,0,0,0-3.794-.463Zm.857,23.27a4.92,4.92,0,0,1-.857-.1.607.607,0,0,1-.48-.3,2.175,2.175,0,0,1-.093-1.45c.116-.538.466-1.442,1.043-1.423a1.2,1.2,0,0,1,.207.027,5.9,5.9,0,0,1,2.675,1.476,5.828,5.828,0,0,0,1.6,1.083,6.6,6.6,0,0,0-.942.091l-.415.069-.4.135a6.543,6.543,0,0,1-2.338.394Z" transform="translate(-1137.155 -76.403)" fill="#301b0e"/>
      </g>
      <g id="Grupo_1569" data-name="Grupo 1569" transform="translate(193.967)">
        <path id="Trazado_5225" data-name="Trazado 5225" d="M1356.886,102.212a16.7,16.7,0,0,1-5.431-1.761c-4.193-1.836-6.981-3.055-7.44-5.388l-1.75-7.636-1.823,4.049a3.486,3.486,0,0,1-3.454,1.983,15.846,15.846,0,0,1-5.238-1.667,27.231,27.231,0,0,1-3.637-1.8c-2.975-1.917-2.271-4.143-1.984-4.779l18.481-41.04a3.485,3.485,0,0,1,3.452-1.982,15.988,15.988,0,0,1,5.269,1.679,26.877,26.877,0,0,1,3.613,1.791c2.97,1.916,2.266,4.141,1.979,4.777l-7.535,16.733,5.952-2.767a3.963,3.963,0,0,1,1.984-.411c1.789.059,4.093,1.071,6.761,2.242l.507.222A23.725,23.725,0,0,1,1369.706,68c2.769,1.764,2.109,3.844,1.841,4.44a3.861,3.861,0,0,1-1.646,1.692l-.1.06-13.7,6.469,4.237,17.431.014.077a3.641,3.641,0,0,1-.2,2.173A3.3,3.3,0,0,1,1356.886,102.212Z" transform="translate(-1323.297 -39.686)" fill="#301b0e"/>
        <path id="Trazado_5226" data-name="Trazado 5226" d="M1333.566,30.535A15,15,0,0,1,1337.882,32c2.422,1.06,4.814,2.107,4.292,3.266l-10.31,22.894,12.22-5.681a1.4,1.4,0,0,1,.743-.141c1.387.046,3.881,1.183,6.314,2.248,2.105.921,4.052,1.807,3.658,2.683a1.485,1.485,0,0,1-.635.568l-15.429,7.288,4.693,19.311a1.3,1.3,0,0,1-.021.735c-.132.292-.437.4-.866.39a16.26,16.26,0,0,1-4.479-1.546c-2.882-1.262-5.794-2.536-5.973-3.6l-3.457-15.082L1323.693,76.3a.989.989,0,0,1-1.05.5,14.858,14.858,0,0,1-4.285-1.452c-2.451-1.073-4.843-2.12-4.321-3.279l18.481-41.04a.988.988,0,0,1,1.049-.5m.15-5h0A6.021,6.021,0,0,0,1327.86,29l-18.48,41.04a5.774,5.774,0,0,0,.538,5.656,8.1,8.1,0,0,0,2.383,2.231,29.034,29.034,0,0,0,4,1.995,17.521,17.521,0,0,0,6.192,1.883,6.312,6.312,0,0,0,4.366-1.463l.248,1.079a6.4,6.4,0,0,0,2.287,3.624,13.469,13.469,0,0,0,2.2,1.46c1.311.719,2.886,1.409,4.41,2.076,2.246.983,4.366,1.911,6.386,1.977a5.831,5.831,0,0,0,5.673-3.348,5.994,5.994,0,0,0,.379-3.611l-.027-.153-.037-.151-3.742-15.4,11.749-5.55.213-.1.2-.12a6.348,6.348,0,0,0,2.656-2.819,5.547,5.547,0,0,0-.624-5.584,7.734,7.734,0,0,0-2.168-1.968,25.653,25.653,0,0,0-3.467-1.732l-.5-.221c-2.913-1.279-5.429-2.383-7.717-2.459a6.593,6.593,0,0,0-2.906.531L1346.83,37.3a5.779,5.779,0,0,0-.536-5.653,8.109,8.109,0,0,0-2.38-2.231,28.634,28.634,0,0,0-3.976-1.986,17.646,17.646,0,0,0-6.222-1.9Z" transform="translate(-1308.878 -25.534)" fill="#301b0e"/>
      </g>
      <g id="Grupo_1570" data-name="Grupo 1570" transform="translate(36.41 28.969)">
        <path id="Trazado_5227" data-name="Trazado 5227" d="M300.143,278.535c-4.475-.148-8.821-2.731-12.238-7.275l-10.974-14.593c-.542-.72-1.539-2.659.888-5.1a26.476,26.476,0,0,1,3.126-2.5c2.175-1.574,4.052-2.933,5.946-2.87a3.37,3.37,0,0,1,2.638,1.348l10.543,14.019a1.785,1.785,0,0,0,1.165.807,1.276,1.276,0,0,0,.752-.3,1.86,1.86,0,0,0,.87-1.376,2.7,2.7,0,0,0-.616-1.783L292.223,245.6c-.422-.562-1.608-2.589.877-5.088A26.564,26.564,0,0,1,296.238,238c2.162-1.565,4.029-2.916,5.916-2.854a3.375,3.375,0,0,1,2.641,1.35l17.934,23.847c.42.558,1.6,2.568-.78,5.013a23.692,23.692,0,0,1-2.981,2.4c-2.046,1.481-3.814,2.761-5.672,2.7a3.645,3.645,0,0,1-.867-.132,11.282,11.282,0,0,1-4.192,5.624A13.019,13.019,0,0,1,300.143,278.535Z" transform="translate(-273.73 -232.647)" fill="#301b0e"/>
        <path id="Trazado_5228" data-name="Trazado 5228" d="M287.753,223.5a.827.827,0,0,1,.671.332l17.934,23.847c.769,1.023-1.231,2.47-3.231,3.918-1.553,1.124-3.106,2.248-4.083,2.216a.848.848,0,0,1-.687-.343l-2.026-2.694c.042,3.436-.771,6.722-3.936,9.012a10.406,10.406,0,0,1-6.5,2.1c-3.583-.118-7.223-2.207-10.268-6.257l-10.974-14.593c-.769-1.023,1.383-2.58,3.485-4.1,1.671-1.209,3.342-2.419,4.355-2.386a.823.823,0,0,1,.668.33L283.7,248.9a4.194,4.194,0,0,0,3.134,1.825,3.752,3.752,0,0,0,2.343-.781c2.405-1.741,2.378-4.533.783-6.654l-10.018-13.321c-.769-1.023,1.358-2.562,3.484-4.1,1.668-1.207,3.32-2.4,4.326-2.37m.15-5c-2.769-.091-5.07,1.574-7.506,3.337a28.331,28.331,0,0,0-3.446,2.772,7.975,7.975,0,0,0-1.828,2.663,5.9,5.9,0,0,0-.4,2.713,6.135,6.135,0,0,0-2.08-.433c-2.775-.092-5.087,1.581-7.534,3.352a28.28,28.28,0,0,0-3.435,2.764,8.016,8.016,0,0,0-1.829,2.652A5.774,5.774,0,0,0,260.56,244l10.974,14.593c3.891,5.174,8.937,8.119,14.208,8.293a15.561,15.561,0,0,0,9.684-3.068,13.912,13.912,0,0,0,4.332-5.035c2.349-.225,4.323-1.654,6.4-3.157a25.452,25.452,0,0,0,3.307-2.682,7.659,7.659,0,0,0,1.785-2.717,5.733,5.733,0,0,0-.8-5.508l-17.935-23.848a5.975,5.975,0,0,0-4.61-2.369Z" transform="translate(-259.404 -218.495)" fill="#301b0e"/>
      </g>
      <g id="Grupo_1571" data-name="Grupo 1571" transform="translate(102.204 27.858)">
        <path id="Trazado_5229" data-name="Trazado 5229" d="M698.259,212.117q0-.037,0-.074l0,.082a2.408,2.408,0,0,1,.071-.631l-.02.08.015-.057a.335.335,0,0,0,0-.238.307.307,0,0,0-.405-.156.3.3,0,0,0-.161.166,2.573,2.573,0,0,0-.1.924.307.307,0,0,0,.12.2.307.307,0,0,0,.429-.062l.039-.069a.309.309,0,0,0,.018-.162Z" transform="translate(-697.647 -211.096)" fill="#301b0e"/>
      </g>
      <path id="Trazado_5230" data-name="Trazado 5230" d="M530.769,157.384a15.4,15.4,0,0,0-1.467-5.442,14.485,14.485,0,0,0-5.795-6.623,13.415,13.415,0,0,0-1.882-.914c-.011-.084-.022-.168-.035-.252l.105-1.537a.7.7,0,0,0-.012-.319.244.244,0,0,0-.273-.151.237.237,0,0,0-.093.394c0,.013,0,.026,0,.039,0,.06-.008.121-.012.181-.033-.119-.067-.237-.1-.355a.181.181,0,0,0-.051-.078c.033-.618.035-1.282.006-2V140.3a14.616,14.616,0,0,0-1.012-5.534,6.259,6.259,0,0,0-5.085-3.754h-.028c-.484-.048-.975-.08-1.459-.1a26.182,26.182,0,0,0-11.692,2.553c-4.785,2.113-8.231,4.833-10.243,8.086a13.1,13.1,0,0,0-2,6.4,14.935,14.935,0,0,0,1.466,6.909,13.83,13.83,0,0,0,5.617,6.372,12.948,12.948,0,0,0,1.4.7,8.869,8.869,0,0,0-.259,1.1,17.273,17.273,0,0,0-.14,3.8,14.509,14.509,0,0,0,1.011,5.626,6.242,6.242,0,0,0,5.247,3.781c.365.031.737.053,1.108.066a28.531,28.531,0,0,0,12.383-2.721,34.038,34.038,0,0,0,7.273-4.184,15.79,15.79,0,0,0,5.249-6.725A12.4,12.4,0,0,0,530.769,157.384Z" transform="translate(-418.648 -115.078)" fill="#301b0e"/>
    </g>
    <g id="Grupo_1575" data-name="Grupo 1575" transform="translate(5.089 5)">
      <g id="Grupo_1573" data-name="Grupo 1573">
        <path id="Trazado_5231" data-name="Trazado 5231" d="M83.368,448.256,51.124,422.025a.858.858,0,0,1-.164-1.216L60.1,409.953c4.189-4.975,11.523-7.993,17.748-2.929,1.8,1.464,3.484,4.038,3.3,6.495A12.652,12.652,0,0,1,93.831,415.1c8.17,6.647,5.994,15.024,1.064,20.88L84.614,448.187A.914.914,0,0,1,83.368,448.256Zm-11.38-32.521a3.062,3.062,0,0,0-4.262.343l-2.846,3.38,4.693,3.818,2.846-3.38A2.933,2.933,0,0,0,71.988,415.735Zm14.186,8.212c-1.97-1.6-4.375-1.032-6.038.943l-3.487,4.142,6.2,5.044,3.487-4.142C88,427.959,88.119,425.53,86.174,423.947Z" transform="translate(-50.775 -352.53)" fill="#f88111"/>
        <path id="Trazado_5232" data-name="Trazado 5232" d="M304.415,283.931,293.44,269.339c-.769-1.023,1.383-2.58,3.484-4.1,2.127-1.539,4.253-3.079,5.023-2.056L312.49,277.2c1.313,1.746,3.427,2.528,5.477,1.044,2.405-1.741,2.378-4.533.783-6.654l-10.018-13.32c-.769-1.023,1.358-2.562,3.484-4.1s4.228-3.06,5-2.038l17.934,23.847c.769,1.023-1.231,2.47-3.231,3.918s-4,2.9-4.769,1.873l-2.026-2.694c.043,3.436-.771,6.722-3.936,9.012C315.895,291.918,309.367,290.517,304.415,283.931Z" transform="translate(-256.874 -222.829)" fill="#f88111"/>
        <path id="Trazado_5233" data-name="Trazado 5233" d="M533.188,199.561a1.221,1.221,0,0,1-1.011-.845,11,11,0,0,1-.56-3.763c-.1-2.1-.02-3.865.956-4.3a1.251,1.251,0,0,1,.569-.115,18.456,18.456,0,0,0,7.619-1.154c2.726-1.2,3.385-2.174,2.877-3.275-.56-1.214-2.506-.865-4.835-.449-4.335.86-11.091,2.313-14.253-4.549-3.032-6.58.954-11.569,8.243-14.787a20.53,20.53,0,0,1,10.559-2.044,1.208,1.208,0,0,1,.969.83,11.329,11.329,0,0,1,.563,3.694c.079,1.97-.11,3.957-1.057,4.375a.9.9,0,0,1-.483.077,14.44,14.44,0,0,0-6.63.752c-2.152.95-2.886,2.056-2.4,3.1s2.3.718,4.616.273c4.421-.9,11.257-2.251,14.563,4.922,3.361,7.217-1.906,11.751-9.31,15.02A22.679,22.679,0,0,1,533.188,199.561Z" transform="translate(-452.551 -148.381)" fill="#f88111"/>
        <path id="Trazado_5234" data-name="Trazado 5234" d="M724.955,134.588l-6.36-28.949c-.266-1.211,2.167-1.718,4.6-2.224s4.866-1.013,5.133.2l.719,3.27c1.4-3.142,3.525-5.8,7.375-6.6,6.438-1.34,11.808,2.577,13.571,10.6l3.885,17.684c.273,1.242-2.284,1.774-4.9,2.319-2.556.532-5.175,1.077-5.447-.164L739.789,113.7c-.459-2.089-2.035-3.693-4.561-3.167-2.926.609-4.073,3.159-3.507,5.733l3.553,16.17c.273,1.242-2.314,1.78-4.9,2.319S725.228,135.83,724.955,134.588Z" transform="translate(-618.319 -93.84)" fill="#ffb014"/>
        <path id="Trazado_5235" data-name="Trazado 5235" d="M962.589,107.832c.068-5.787,5.18-9.114,12.348-10.367l4.61-.8.018-1.547c.017-1.424-.885-2.459-2.87-2.489a18.323,18.323,0,0,0-8.6,2.191.849.849,0,0,1-.379.087c-.914-.014-1.808-1.7-2.544-3.505a9.829,9.829,0,0,1-.939-3.233,1.267,1.267,0,0,1,.676-1.228,25.165,25.165,0,0,1,12.422-3.123c7.972.121,12.848,3.539,12.747,12.266l-.223,19.157c-.015,1.238-2.44,1.2-4.867,1.164-2.458-.037-4.915-.075-4.9-1.313l.031-2.724c-1.858,2.572-4.461,4.235-8.746,4.17C966.428,116.464,962.522,113.65,962.589,107.832Zm16.865-3.086.023-1.95-3.695.687a2.681,2.681,0,0,0-2.582,2.468A2.111,2.111,0,0,0,975.54,108,3.549,3.549,0,0,0,979.454,104.745Z" transform="translate(-825.699 -80.066)" fill="#ffb014"/>
        <path id="Trazado_5236" data-name="Trazado 5236" d="M1171.515,122.875c2.111-9.8,10.36-14.575,18.715-12.807a20.517,20.517,0,0,1,9.765,4.5,1.334,1.334,0,0,1,.281,1.388,11.861,11.861,0,0,1-1.781,3.483c-1.151,1.75-2.741,3.6-3.759,3.381a.7.7,0,0,1-.374-.206,11.029,11.029,0,0,0-5.143-2.765c-3.484-.737-6.481,1.507-7.283,5.229-.8,3.691,1.016,6.954,4.5,7.691a11.045,11.045,0,0,0,5.932-.453,1.125,1.125,0,0,1,.45,0c1.018.215,1.57,2.294,1.881,4.289a13.65,13.65,0,0,1,.131,4.33c-.117.545-.332.942-.672,1.028a20.7,20.7,0,0,1-10.837.174C1174.967,140.373,1169.384,132.77,1171.515,122.875Z" transform="translate(-1002.872 -102.069)" fill="#ffb014"/>
        <path id="Trazado_5237" data-name="Trazado 5237" d="M1342.827,100.38l18.481-41.04c.522-1.159,2.943-.1,5.365.961s4.814,2.107,4.292,3.266l-10.31,22.894,12.221-5.681c1.029-.6,4.088.808,7.057,2.108,2.1.921,4.052,1.807,3.657,2.684a1.486,1.486,0,0,1-.636.568l-15.429,7.288,4.693,19.311a1.29,1.29,0,0,1-.021.735c-.445.989-2.9-.083-5.346-1.156-2.883-1.262-5.794-2.536-5.973-3.6l-3.458-15.081-4.938,10.967c-.522,1.159-2.943.1-5.336-.948C1344.7,102.586,1342.3,101.539,1342.827,100.38Z" transform="translate(-1148.791 -58.836)" fill="#ffb014"/>
      </g>
      <g id="Grupo_1574" data-name="Grupo 1574" transform="translate(12.061 2.049)">
        <path id="Trazado_5238" data-name="Trazado 5238" d="M131.115,423.024c0-.227.057-1.056,2.543-2.314,1.963-.993,4.252-2.152,7.267-1.712,1.981.289,4.731,1.334,4.761,2.6a1.527,1.527,0,0,1-.672,1.107c-1.38.95-3.015-1.04-5.62-1.06-3.578-.027-5.454,3.688-7.335,2.744A1.7,1.7,0,0,1,131.115,423.024Z" transform="translate(-131.115 -366.894)" fill="#fff" opacity="0.33"/>
        <path id="Trazado_5239" data-name="Trazado 5239" d="M232.113,475.251c0-.227.057-1.056,2.542-2.314,1.963-.993,4.252-2.152,7.267-1.712,1.981.289,4.731,1.334,4.761,2.6a1.528,1.528,0,0,1-.672,1.107c-1.38.949-3.015-1.04-5.62-1.06-3.578-.027-5.454,3.687-7.335,2.744A1.694,1.694,0,0,1,232.113,475.251Z" transform="translate(-216.951 -411.28)" fill="#fff" opacity="0.33"/>
        <path id="Trazado_5240" data-name="Trazado 5240" d="M309.052,349.829c.043-.137.245-.626,2-.907a7.422,7.422,0,0,1,4.738.365c1.141.556,2.6,1.715,2.362,2.487a.984.984,0,0,1-.627.539c-1.024.308-1.617-1.208-3.19-1.721-2.16-.7-4.035,1.176-4.986.245A1.063,1.063,0,0,1,309.052,349.829Z" transform="translate(-282.31 -307.234)" fill="#fff" opacity="0.33"/>
        <path id="Trazado_5241" data-name="Trazado 5241" d="M411.646,275.238c.043-.137.245-.627,2-.907a7.423,7.423,0,0,1,4.739.365c1.141.555,2.6,1.715,2.362,2.487a.985.985,0,0,1-.627.539c-1.024.308-1.617-1.208-3.189-1.721-2.16-.7-4.036,1.176-4.986.245A1.061,1.061,0,0,1,411.646,275.238Z" transform="translate(-369.502 -243.842)" fill="#fff" opacity="0.33"/>
        <path id="Trazado_5242" data-name="Trazado 5242" d="M576.411,181.476c.005-.183.083-.852,2.137-1.786a9.412,9.412,0,0,1,5.937-1.141c1.592.3,3.78,1.237,3.76,2.264a1.238,1.238,0,0,1-.582.873c-1.149.721-2.4-.942-4.509-1.046-2.893-.142-4.539,2.8-6.029,1.973A1.369,1.369,0,0,1,576.411,181.476Z" transform="translate(-509.559 -162.517)" fill="#fff" opacity="0.33"/>
        <path id="Trazado_5243" data-name="Trazado 5243" d="M623.688,256.5c.043-.178.257-.818,2.462-1.324a9.452,9.452,0,0,1,6.054.06c1.5.609,3.452,1.96,3.221,2.96-.113.491-.711.724-.749.739-1.274.478-2.161-1.4-4.206-1.917-2.807-.712-5.025,1.84-6.315.736A1.357,1.357,0,0,1,623.688,256.5Z" transform="translate(-549.717 -227.344)" fill="#fff" opacity="0.33"/>
        <path id="Trazado_5244" data-name="Trazado 5244" d="M818.452,116.547c.032-.181.208-.831,2.378-1.463a9.444,9.444,0,0,1,6.046-.286c1.533.522,3.561,1.76,3.391,2.772-.084.5-.667.764-.7.781-1.244.55-2.24-1.272-4.311-1.673-2.844-.55-4.906,2.124-6.259,1.1A1.359,1.359,0,0,1,818.452,116.547Z" transform="translate(-715.251 -108.112)" fill="#fff" opacity="0.33"/>
        <path id="Trazado_5245" data-name="Trazado 5245" d="M1050.723,98.408c.088-.168.466-.755,2.806-.718a9.757,9.757,0,0,1,6.054,1.552c1.347.979,2.959,2.811,2.473,3.756a1.307,1.307,0,0,1-.941.554c-1.4.165-1.81-1.931-3.727-2.954-2.632-1.4-5.507.6-6.519-.82A1.389,1.389,0,0,1,1050.723,98.408Z" transform="translate(-912.562 -93.904)" fill="#fff" opacity="0.33"/>
        <path id="Trazado_5246" data-name="Trazado 5246" d="M1269.06,126.768c.068-.177.377-.8,2.705-1.022a9.765,9.765,0,0,1,6.19.878c1.45.825,3.259,2.47,2.884,3.462a1.3,1.3,0,0,1-.871.654c-1.372.317-2.017-1.722-4.037-2.528-2.774-1.107-5.4,1.2-6.569-.1A1.393,1.393,0,0,1,1269.06,126.768Z" transform="translate(-1098.164 -117.639)" fill="#fff" opacity="0.33"/>
        <path id="Trazado_5247" data-name="Trazado 5247" d="M1535.123,212.631c.083-.111.422-.491,2.1-.207a7.082,7.082,0,0,1,4.181,1.784c.858.852,1.809,2.348,1.351,2.973a.958.958,0,0,1-.74.3c-1.027-.036-1.083-1.588-2.345-2.535-1.735-1.3-4.033-.174-4.6-1.308A1.011,1.011,0,0,1,1535.123,212.631Z" transform="translate(-1324.206 -191.327)" fill="#fff" opacity="0.33"/>
        <path id="Trazado_5248" data-name="Trazado 5248" d="M1466.857,72.792c.083-.111.422-.491,2.1-.207a7.08,7.08,0,0,1,4.181,1.784c.858.852,1.809,2.348,1.351,2.973a.96.96,0,0,1-.74.295c-1.026-.036-1.083-1.588-2.345-2.535-1.734-1.3-4.033-.174-4.6-1.308A1.011,1.011,0,0,1,1466.857,72.792Z" transform="translate(-1266.189 -72.482)" fill="#fff" opacity="0.33"/>
      </g>
    </g>
  </g>
  <g id="Grupo_1578" data-name="Grupo 1578" transform="translate(54.648 49.325)">
    <g id="Grupo_1577" data-name="Grupo 1577">
      <path id="Trazado_5249" data-name="Trazado 5249" d="M390.354,629.391c-1.495,1.574-2.228,2.38-3.664,4.032l-5.808-5.05q1.892-2.186,3.893-4.284l.626.6c-1.26,1.327-1.88,2-3.1,3.383l1.849,1.637c1.135-1.283,1.712-1.913,2.882-3.149l.62.587c-1.162,1.228-1.735,1.854-2.863,3.128l1.981,1.754c1.165-1.316,1.757-1.961,2.959-3.227Z" transform="translate(-380.882 -583.552)" fill="#fff"/>
      <path id="Trazado_5250" data-name="Trazado 5250" d="M414.847,611.225c.313-.32.47-.48.785-.8l5.461,5.423c-.3.3-.444.449-.738.751Z" transform="translate(-409.748 -571.943)" fill="#fff"/>
      <path id="Trazado_5251" data-name="Trazado 5251" d="M458.084,583.086c1.06-.958,2.249-1.039,2.925-.326-.309.269-.463.4-.77.675-.445-.383-1.055-.322-1.647.213s-.744,1.134-.415,1.491c.26.282.677.251,1.307-.118.358-.21.537-.314.9-.52,1.142-.655,1.781-.622,2.3-.022.632.73.306,1.912-.725,2.843-1.084.979-2.2,1.129-3,.454.309-.291.464-.435.775-.722.524.38,1.084.275,1.714-.294s.812-1.154.481-1.531c-.265-.3-.6-.309-1.248.06-.357.205-.535.309-.891.518-1.055.622-1.812.673-2.359.089C456.783,585.2,457.038,584.031,458.084,583.086Z" transform="translate(-445.638 -548.027)" fill="#fff"/>
      <path id="Trazado_5252" data-name="Trazado 5252" d="M490.786,559.87c-.615-.723-.368-1.726.718-2.714.54-.49.811-.733,1.357-1.214l-.289-.363c-.422-.53-1.081-.526-1.771.037-.642.524-.827,1.117-.582,1.621-.317.265-.476.4-.791.666-.564-.78-.31-1.969.877-2.936s2.367-.99,3.047-.12l2.363,3.021c-.308.242-.462.363-.769.607l-.594-.747-.019.015a2.353,2.353,0,0,1-.888,2.072A1.813,1.813,0,0,1,490.786,559.87Zm2.806-3.01-.282-.355c-.505.449-.756.675-1.255,1.131-.627.576-.787,1.143-.451,1.544s.942.351,1.521-.124A1.589,1.589,0,0,0,493.592,556.859Z" transform="translate(-472.887 -524.173)" fill="#fff"/>
      <path id="Trazado_5253" data-name="Trazado 5253" d="M515.578,531.209l-.019.014.562.752c-.315.235-.471.354-.785.592l-4.661-6.126c.349-.265.524-.4.874-.66l1.843,2.465.02-.015a2.318,2.318,0,0,1,1.046-2.041,2.592,2.592,0,0,1,3.844.8,2.622,2.622,0,0,1-.5,3.866A2.3,2.3,0,0,1,515.578,531.209Zm-1.084-1.481a1.86,1.86,0,0,0,2.671.583,2.072,2.072,0,0,0-2.412-3.325A1.848,1.848,0,0,0,514.494,529.728Z" transform="translate(-491.19 -499.892)" fill="#fff"/>
      <path id="Trazado_5254" data-name="Trazado 5254" d="M564.152,504.8a2.893,2.893,0,1,1,3.974.811A2.722,2.722,0,0,1,564.152,504.8Zm3.958-2.58a1.843,1.843,0,1,0-3.074,1.985,1.84,1.84,0,1,0,3.074-1.985Z" transform="translate(-536.164 -478.298)" fill="#fff"/>
      <path id="Trazado_5255" data-name="Trazado 5255" d="M597.9,480.311c.345-.206.517-.309.863-.512l.46.781.021-.012a1.526,1.526,0,0,1,.826-1.638,3.086,3.086,0,0,1,.39-.179l.445.784a2.36,2.36,0,0,0-.517.234,1.24,1.24,0,0,0-.513,1.8l1.751,2.98c-.351.206-.527.31-.876.52Z" transform="translate(-565.321 -460.035)" fill="#fff"/>
      <path id="Trazado_5256" data-name="Trazado 5256" d="M646.633,451.174l.022-.01-.408-.845c.364-.176.546-.262.911-.435l3.166,6.687c-.36.17-.54.256-.9.43l-1.21-2.5-.021.01a2.228,2.228,0,0,1-1.291,1.779,2.609,2.609,0,0,1-3.616-1.364,2.579,2.579,0,0,1,1.057-3.774A2.292,2.292,0,0,1,646.633,451.174Zm.777,1.662a1.83,1.83,0,0,0-2.533-1.042,1.777,1.777,0,0,0-.651,2.637,1.8,1.8,0,0,0,2.492,1.035A1.845,1.845,0,0,0,647.41,452.836Z" transform="translate(-603.541 -435.501)" fill="#fff"/>
      <path id="Trazado_5257" data-name="Trazado 5257" d="M688.273,436.584c-.354.145-.531.218-.884.366l-.348-.831-.022.009a2.054,2.054,0,0,1-1.374,1.672,1.93,1.93,0,0,1-2.758-1.005l-1.5-3.274c.384-.176.577-.263.963-.435l1.4,3.135a1.25,1.25,0,0,0,1.85.7,1.477,1.477,0,0,0,.851-2.062l-1.26-3.005c.39-.163.585-.244.975-.4Z" transform="translate(-636.273 -419.836)" fill="#fff"/>
      <path id="Trazado_5258" data-name="Trazado 5258" d="M732.573,422.385a2.406,2.406,0,0,1-1.8,2.439,2.87,2.87,0,0,1-2.044-5.364,2.531,2.531,0,0,1,3.5,1.686l.116.333c-1.665.578-2.493.881-4.138,1.518l.019.05a1.67,1.67,0,0,0,2.292,1.014,1.485,1.485,0,0,0,1.115-1.342C732.005,422.584,732.194,422.517,732.573,422.385Zm-4.629-.067c1.254-.485,1.883-.719,3.148-1.17a1.558,1.558,0,0,0-2.1-.927A1.644,1.644,0,0,0,727.944,422.319Z" transform="translate(-674.937 -409.467)" fill="#fff"/>
      <path id="Trazado_5259" data-name="Trazado 5259" d="M783.27,400.247c.378-.118.568-.176.947-.291l.256.847.023-.007a2.124,2.124,0,0,1,1.629-1.5,1.919,1.919,0,0,1,2.624,1.394c.373,1.391.559,2.087.931,3.478-.388.1-.582.157-.97.263-.366-1.324-.549-1.987-.915-3.311a1.248,1.248,0,0,0-1.75-.947,1.484,1.484,0,0,0-1.11,1.952l.945,3.125c-.385.116-.577.175-.962.295Z" transform="translate(-722.86 -392.408)" fill="#fff"/>
      <path id="Trazado_5260" data-name="Trazado 5260" d="M834.466,392.221a2.4,2.4,0,0,1-2.089,2.19,2.871,2.871,0,0,1-1.348-5.579,2.527,2.527,0,0,1,3.246,2.116c.029.138.043.207.073.345-1.719.362-2.576.558-4.283.98l.013.052a1.667,1.667,0,0,0,2.139,1.3,1.482,1.482,0,0,0,1.272-1.19C833.879,392.346,834.074,392.3,834.466,392.221Zm-4.57-.654c1.3-.322,1.952-.474,3.26-.76a1.555,1.555,0,0,0-1.961-1.186A1.641,1.641,0,0,0,829.9,391.567Z" transform="translate(-761.614 -383.538)" fill="#fff"/>
      <path id="Trazado_5261" data-name="Trazado 5261" d="M875.5,381.672a1.485,1.485,0,0,0-1.751-.813,2.073,2.073,0,0,0,.735,4.041,1.458,1.458,0,0,0,1.34-1.314c.395-.065.592-.1.988-.16a2.39,2.39,0,0,1-2.191,2.278,2.87,2.87,0,0,1-1.022-5.648,2.381,2.381,0,0,1,2.9,1.453C876.094,381.573,875.895,381.605,875.5,381.672Z" transform="translate(-797.638 -376.109)" fill="#fff"/>
      <path id="Trazado_5262" data-name="Trazado 5262" d="M918.662,377.418a2.4,2.4,0,0,1-2.3,1.967,2.871,2.871,0,0,1-.772-5.687,2.526,2.526,0,0,1,3.013,2.434c.015.14.022.21.037.35-1.747.186-2.62.294-4.359.54l.007.053a1.666,1.666,0,0,0,1.995,1.508,1.483,1.483,0,0,0,1.386-1.054C918.066,377.483,918.265,377.461,918.662,377.418Zm-4.478-1.115c1.325-.188,1.989-.273,3.319-.425a1.554,1.554,0,0,0-1.83-1.379A1.641,1.641,0,0,0,914.184,376.3Z" transform="translate(-833.251 -370.728)" fill="#fff"/>
      <path id="Trazado_5263" data-name="Trazado 5263" d="M958.921,369.5c1.373-.108,2.333.554,2.433,1.532-.395.024-.593.036-.988.063-.116-.575-.62-.9-1.387-.84s-1.232.44-1.19.923c.033.383.37.614,1.068.708.4.054.595.081.991.138,1.259.181,1.73.6,1.777,1.39.057.964-.888,1.7-2.223,1.8-1.4.11-2.338-.454-2.555-1.478.4-.04.607-.059,1.013-.095.179.621.667.881,1.483.817s1.3-.415,1.265-.916c-.026-.4-.282-.613-.991-.715-.393-.056-.59-.084-.984-.137-1.171-.155-1.777-.58-1.854-1.376C956.688,370.371,957.567,369.6,958.921,369.5Z" transform="translate(-870.315 -367.173)" fill="#fff"/>
      <path id="Trazado_5264" data-name="Trazado 5264" d="M995.775,354.7a.673.673,0,1,1,.691.55A.626.626,0,0,1,995.775,354.7Zm.209,1.56c.42-.02.629-.029,1.049-.046.088,2.217.131,3.326.218,5.543-.4.016-.6.025-1,.044C996.142,359.58,996.089,358.472,995.984,356.255Z" transform="translate(-903.461 -354.083)" fill="#fff"/>
      <path id="Trazado_5265" data-name="Trazado 5265" d="M1013.65,358.756c.008.535.012.8.02,1.339.488-.007.732-.01,1.221-.013,0,.305,0,.458,0,.763-.486,0-.728.006-1.214.013.02,1.318.03,1.978.05,3.3.007.507.244.732.762.727.116,0,.348-.019.419-.03,0,.311,0,.467,0,.779a4,4,0,0,1-.636.048c-1.1.012-1.541-.389-1.566-1.456-.031-1.338-.047-2.006-.078-3.344-.373.009-.559.014-.931.026-.009-.3-.014-.458-.023-.762.375-.012.562-.017.937-.026-.013-.536-.019-.8-.031-1.339C1013.013,358.767,1013.225,358.763,1013.65,358.756Z" transform="translate(-916.981 -358.054)" fill="#fff"/>
      <path id="Trazado_5266" data-name="Trazado 5266" d="M1039.992,371.2c0-.949.816-1.551,2.242-1.6.709-.022,1.063-.031,1.773-.043l.016-.464c.023-.677-.469-1.1-1.335-1.121-.806-.019-1.316.312-1.455.855-.4,0-.6-.006-1-.008.076-.96,1.012-1.7,2.5-1.662s2.38.782,2.333,1.885c-.066,1.533-.1,2.3-.163,3.832-.382-.016-.573-.023-.955-.036.013-.382.02-.573.033-.954h-.023a2.276,2.276,0,0,1-1.968,1C1040.791,372.86,1039.99,372.194,1039.992,371.2Zm3.975-.467c.006-.181.009-.272.016-.453-.659.014-.987.023-1.645.046-.828.031-1.3.358-1.309.881s.474.879,1.2.893A1.561,1.561,0,0,0,1043.967,370.729Z" transform="translate(-941.041 -365.192)" fill="#fff"/>
      <path id="Trazado_5267" data-name="Trazado 5267" d="M1083.49,368.858c.4.022.6.034.992.058-.022.353-.033.53-.056.883h.024a2.136,2.136,0,0,1,2.06-.838,1.924,1.924,0,0,1,1.983,2.223c-.138,1.434-.207,2.151-.345,3.584-.4-.039-.6-.057-1.007-.092l.3-3.422a1.25,1.25,0,0,0-1.316-1.5,1.488,1.488,0,0,0-1.729,1.441c-.083,1.3-.124,1.955-.207,3.258-.4-.025-.6-.037-1.008-.06C1083.305,372.181,1083.367,371.074,1083.49,368.858Z" transform="translate(-977.747 -366.64)" fill="#fff"/>
      <path id="Trazado_5268" data-name="Trazado 5268" d="M1147.331,366.455l-.19,1.326c.487.069.73.105,1.217.179-.046.3-.069.452-.115.754-.483-.074-.726-.109-1.21-.178-.186,1.305-.279,1.958-.466,3.263-.072.5.128.761.645.838.116.017.35.036.421.036-.046.308-.07.462-.118.77a4.037,4.037,0,0,1-.64-.052c-1.1-.162-1.473-.627-1.33-1.684.178-1.326.267-1.989.445-3.315-.372-.05-.558-.074-.93-.121l.1-.757c.374.047.561.072.935.122.071-.531.107-.8.178-1.327C1146.695,366.366,1146.906,366.4,1147.331,366.455Z" transform="translate(-1030.335 -364.473)" fill="#fff"/>
      <path id="Trazado_5269" data-name="Trazado 5269" d="M1176.827,385.158c-.378-.078-.567-.116-.946-.191.07-.354.105-.531.175-.885l-.023,0a2.076,2.076,0,0,1-2.087.62,1.932,1.932,0,0,1-1.739-2.373c.232-1.421.349-2.132.582-3.553.419.069.628.1,1.047.176-.234,1.354-.35,2.031-.583,3.385a1.253,1.253,0,0,0,1.153,1.614,1.484,1.484,0,0,0,1.869-1.235c.252-1.279.378-1.919.631-3.2.417.082.626.124,1.043.21C1177.5,381.9,1177.275,382.985,1176.827,385.158Z" transform="translate(-1053.374 -375.065)" fill="#fff"/>
      <path id="Trazado_5270" data-name="Trazado 5270" d="M1217.494,389.577c1.362.324,2.089,1.254,1.885,2.215-.39-.1-.585-.15-.976-.247.065-.583-.324-1.05-1.084-1.23s-1.328.036-1.435.509c-.085.375.169.7.815,1,.367.174.551.262.916.439,1.164.564,1.493,1.107,1.294,1.877-.242.935-1.385,1.341-2.709,1.025-1.392-.332-2.121-1.158-2.016-2.2.4.088.605.132,1.009.224-.018.647.374,1.046,1.184,1.239s1.385.009,1.507-.478c.1-.388-.084-.672-.74-.989-.363-.176-.546-.263-.911-.436-1.086-.511-1.54-1.1-1.369-1.885C1215.066,389.717,1216.151,389.257,1217.494,389.577Z" transform="translate(-1089.073 -384.162)" fill="#fff"/>
      <path id="Trazado_5271" data-name="Trazado 5271" d="M1278.2,407.747c-.4-.128-.6-.192-1-.317q-.255-2.993-.619-5.979c.433.126.649.19,1.082.32.155,1.951.219,2.926.324,4.871l.022.007c1.2-1.533,1.816-2.294,3.066-3.8.426.141.638.212,1.063.357Q1280.126,405.435,1278.2,407.747Z" transform="translate(-1142.108 -394.34)" fill="#fff"/>
      <path id="Trazado_5272" data-name="Trazado 5272" d="M1311.242,403.535a.695.695,0,1,1,.451.776A.636.636,0,0,1,1311.242,403.535Zm-.388,1.526c.407.143.61.215,1.017.362l-1.88,5.219c-.389-.14-.583-.21-.974-.346C1309.752,408.2,1310.12,407.154,1310.854,405.061Z" transform="translate(-1169.678 -395.799)" fill="#fff"/>
      <path id="Trazado_5273" data-name="Trazado 5273" d="M1327.643,429.068c.332-.89,1.325-1.162,2.719-.692.692.234,1.037.354,1.728.6.07-.172.106-.258.177-.429.257-.627-.071-1.2-.9-1.534-.771-.308-1.379-.181-1.7.278-.386-.149-.579-.222-.965-.367.407-.873,1.565-1.229,2.992-.659s2.028,1.594,1.6,2.612l-1.489,3.534c-.364-.154-.546-.23-.912-.38l.364-.883-.022-.009a2.365,2.365,0,0,1-2.249.227C1327.835,430.913,1327.294,430,1327.643,429.068Zm4,.993.173-.419c-.642-.225-.963-.335-1.605-.551-.81-.269-1.382-.133-1.569.355s.152.994.849,1.27A1.594,1.594,0,0,0,1331.643,430.061Z" transform="translate(-1185.417 -415.193)" fill="#fff"/>
      <path id="Trazado_5274" data-name="Trazado 5274" d="M1357.219,434.805c-.46,1.027-1.207,1.247-2.41.73-.017-.007-.168-.072-.177-.082.121-.285.182-.427.3-.711l.148.063c.616.265.931.154,1.179-.413l2.336-5.341c.4.175.6.263,1,.442Zm1.874-7.249a.7.7,0,1,1,.4.81A.641.641,0,0,1,1359.093,427.556Z" transform="translate(-1208.444 -416.251)" fill="#fff"/>
      <path id="Trazado_5275" data-name="Trazado 5275" d="M1391.554,457.135a2.516,2.516,0,0,1-3.112.319,2.87,2.87,0,1,1,2.481-5.176,2.59,2.59,0,0,1,1.293,3.752l-.163.313c-1.639-.85-2.464-1.259-4.123-2.043l-.023.048a1.706,1.706,0,0,0,.911,2.393,1.563,1.563,0,0,0,1.8-.084C1390.994,456.846,1391.181,456.942,1391.554,457.135Zm-3.308-3.488c1.264.6,1.893.906,3.146,1.541a1.6,1.6,0,0,0-.839-2.2A1.684,1.684,0,0,0,1388.246,453.646Z" transform="translate(-1235.704 -437.233)" fill="#fff"/>
      <path id="Trazado_5276" data-name="Trazado 5276" d="M1429.517,472.2c1.271.706,1.752,1.817,1.3,2.688-.363-.211-.544-.315-.907-.522.216-.546-.049-1.11-.758-1.5s-1.331-.347-1.562.079c-.184.338-.016.724.548,1.206.32.274.479.412.8.689,1.011.882,1.2,1.5.8,2.19-.486.834-1.732.895-2.967.208-1.3-.722-1.808-1.729-1.43-2.706.379.2.567.3.945.505-.188.62.1,1.118.853,1.539s1.377.409,1.626-.027c.2-.348.092-.674-.478-1.171-.316-.275-.474-.412-.792-.684-.947-.806-1.244-1.509-.868-2.215C1427.063,471.638,1428.262,471.5,1429.517,472.2Z" transform="translate(-1268.427 -454.087)" fill="#fff"/>
    </g>
  </g>
</svg>
